<?xml version="1.0" standalone="no"?><!DOCTYPE svg PUBLIC "-//W3C//DTD SVG 1.1//EN" "http://www.w3.org/Graphics/SVG/1.1/DTD/svg11.dtd"><svg class="icon" width="16px" height="16.00px" viewBox="0 0 1024 1024" version="1.1" xmlns="http://www.w3.org/2000/svg"><path fill="#568497" d="M925.280336 893.701172c13.626182 27.249778 12.321616 50.196687 12.220768 51.612444-0.076283 0.686545-0.081455 1.12097-0.081455 1.828202v4.459313H810.656983V951.59596H86.536417v-4.459314c0-0.585697 0-0.919273-0.055596-1.480404-0.080162-1.525657-1.267071-30.055434 17.64202-61.37406 11.323475-18.757818 27.651879-35.020283 48.530101-48.338748 26.85802-17.131313 61.363717-29.464566 102.565495-36.66101 4.328727-0.59604 40.157091-5.691475 77.772283-15.591434 73.192727-19.273697 90.98602-40.706586 96.389172-56.268283 4.141253-8.030384 6.459475-23.990303 3.086222-62.21705-7.424-84.161939-51.11596-133.722505-83.015111-169.909011-9.045333-10.26198-16.858505-19.126303-22.440081-27.181252-21.832404-31.54101-25.271596-68.535596-25.610343-72.980687 0.029737-1.192081 0.17196-1.635556 0.166787-1.635555 0.49002-0.93996 3.444364-3.666747 5.606142-5.656566l0.448646-0.41503c16.727919-15.433697 13.299071-33.095111 11.253657-43.650586-0.152566-0.783515-0.30901-1.570909-0.449939-2.363475-6.692202-36.318384-7.105939-94.732929-0.929617-130.217374 0.151273-0.884364 0.243071-1.782949 0.272808-2.682828 1.166222-35.564606 34.914263-66.504404 36.565334-67.993859 8.409212-7.147313 17.92-15.944404 24.883717-27.045495 2.813414-4.485172 4.69204-8.46998 5.920323-12.545293 3.262061-10.864485 0.156444-19.955071-2.373818-26.000808 2.918141-0.292202 5.988848-0.449939 7.813172-0.540444l1.221818-0.065939c21.898343-1.150707 45.176242-2.130747 67.868444-0.393051 47.191919 3.616323 115.364202 13.615838 172.131556 40.701414 31.544889 15.05099 45.686949 28.88404 47.459555 30.691556 10.631758 12.889212 18.636283 29.323636 23.797657 48.859798 1.671758 6.322424 2.707394 11.408808 3.25301 16 0.045253 0.337455 0.090505 0.676202 0.151273 1.014949 4.424404 25.438384 5.500121 53.615192 3.479273 91.373899-0.691717 12.908606-2.151434 26.605899-4.601536 43.115313-0.725333 4.884687-0.880485 9.455192-0.480969 13.747718h40.855272a48.620606 48.620606 0 0 1-1.751919-1.960081c-0.297374-0.35297-1.080889-1.292929-0.368485-6.105212 2.631111-17.737697 4.207192-32.585697 4.964849-46.727758 1.348525-25.201778 2.403556-62.893253-3.908526-99.576242-0.782222-6.261657-2.121697-12.877576-4.20202-20.761859-6.671515-25.257374-17.388606-46.853172-31.853899-64.187475a19.190949 19.190949 0 0 0-0.424081-0.49002c-2.56-2.867717-64.818424-70.398707-245.550545-84.257616-24.989737-1.913535-49.691152-0.883071-72.852687 0.333576l-1.162343 0.060767c-5.863434 0.303838-13.888646 0.712404-21.399273 2.712566-18.660848 4.979071-23.641212 17.155879-24.944485 23.969616-2.165657 11.292444 1.64202 20.075313 4.161939 25.883152 0.363313 0.844283 0.818424 1.883798 1.131314 2.69705-0.246949 0.479677-0.601212 1.101576-1.100283 1.904485-4.196848 6.68703-10.798545 12.717253-17.303273 18.241939a3.956364 3.956364 0 0 0-0.222384 0.192647c-1.944566 1.696323-47.268202 41.933576-49.757091 94.489858-6.718061 39.974788-6.212525 102.252606 1.216647 142.570021 0.166788 0.914101 0.338747 1.824323 0.514586 2.72808 0.465455 2.373818 1.146828 5.893172 1.051151 7.283071a8.661333 8.661333 0 0 1-0.561131 0.575354l-0.448647 0.413737c-8.546263 7.884283-18.232889 16.818424-18.232889 36.242101 0 0.323232 0.010343 0.646465 0.025859 0.965818 0.100848 2.049293 2.853495 50.711273 32.474505 93.504647 6.86804 9.919354 15.782788 20.030061 25.227636 30.74198 29.933899 33.960081 67.185778 76.222061 73.499152 147.732686 2.48501 28.156121 1.186909 38.666343 0.656808 41.453899a19.591758 19.591758 0 0 0-1.626505 4.238223c-0.034909 0.146101-5.635879 15.065212-69.656566 31.944404-36.93899 9.737051-73.297455 14.717414-73.656889 14.762666-0.241778 0.034909-0.484848 0.069818-0.721454 0.111192-47.252687 8.212687-87.201616 22.777535-118.742626 43.287273-26.030545 16.924444-46.418747 37.884121-60.606061 62.293333-22.671515 38.994747-22.056081 74.515394-21.727677 80.995556v23.24299c0 10.67701 8.657455 19.338343 19.338344 19.338343h706.501818c0.033616 0 0.065939 0.005172 0.099555 0.005172h182.959839c10.682182 0 19.338343-8.661333 19.338343-19.343515v-23.095596c0.341333-5.339798 0.93996-27.014465-8.817777-54.142707h-41.995637zM766.639205 452.949333l134.813737 134.812445L669.275164 819.929212l-157.271919 22.469818 19.969293-154.78303 234.666667-234.666667z m157.287434 112.354263l-134.808565-134.813737 44.934464-44.934465 134.808566 134.807273-44.934465 44.940929z m0 0" /></svg>